name rise30.8019peak61.5557fall86.2505.mot
datacolumns 19
datarows 20
range 22.39991400000000 22.43158100000000
endheader
time	ground_force1_vx	ground_force1_vy	ground_force1_vz	ground_force1_px	ground_force1_py	ground_force1_pz	ground_force2_vx	ground_force2_vy	ground_force2_vz	ground_force2_px	ground_force2_py	ground_force2_pz	ground_torque1_x	ground_torque1_y	ground_torque1_z	ground_torque2_x	ground_torque2_y	ground_torque2_z	
22.39991400000000	-6.51029400000000	41.66063500000000	-10.05887000000000	0.23172500000000	0.00000000000000	0.06756100000000	-63.94286000000000	733.75770399999999	-33.65285600000000	0.02261300000000	0.00000000000000	-0.07785000000000	0.00000000000000	-5.33944800000000	0.00000000000000	0.00000000000000	-12.07121200000000	0.00000000000000	
22.40158400000000	-6.93820500000000	49.00871500000000	-11.27473500000000	0.24036300000000	0.00000000000000	0.06853200000000	-64.82990100000001	729.88294399999995	-33.12613100000000	0.02177200000000	0.00000000000000	-0.07767000000000	0.00000000000000	-6.11956000000000	0.00000000000000	0.00000000000000	-12.15217400000000	0.00000000000000	
22.40325600000000	-7.18944900000000	56.49791700000000	-12.36776200000000	0.24811900000000	0.00000000000000	0.06939500000000	-65.72288700000000	725.88665000000003	-32.58678300000000	0.02093500000000	0.00000000000000	-0.07748700000000	0.00000000000000	-6.85516300000000	0.00000000000000	0.00000000000000	-12.23642100000000	0.00000000000000	
22.40491500000000	-7.24629100000000	64.03616800000000	-13.31184500000000	0.25513200000000	0.00000000000000	0.07017100000000	-66.61958199999999	721.76549000000000	-32.03471100000000	0.02010200000000	0.00000000000000	-0.07730300000000	0.00000000000000	-7.52864200000000	0.00000000000000	0.00000000000000	-12.32360000000000	0.00000000000000	
22.40658000000000	-7.09984500000000	71.55289600000000	-14.09018000000000	0.26150900000000	0.00000000000000	0.07087200000000	-67.51765700000000	717.51612899999998	-31.46984000000000	0.01927400000000	0.00000000000000	-0.07711600000000	0.00000000000000	-8.12725000000000	0.00000000000000	0.00000000000000	-12.41333700000000	0.00000000000000	
22.40825100000000	-6.74973600000000	79.00136500000001	-14.69532400000000	0.26733800000000	0.00000000000000	0.07151000000000	-68.41469200000000	713.13524900000004	-30.89211900000000	0.01845200000000	0.00000000000000	-0.07692700000000	0.00000000000000	-8.64340900000000	0.00000000000000	0.00000000000000	-12.50524100000000	0.00000000000000	
22.40991900000000	-6.20312300000000	86.35865600000000	-15.12847700000000	0.27268900000000	0.00000000000000	0.07209400000000	-69.30818300000000	708.61956699999996	-30.30152700000000	0.01763600000000	0.00000000000000	-0.07673600000000	0.00000000000000	-9.07453800000000	0.00000000000000	0.00000000000000	-12.59890300000000	0.00000000000000	
22.41158100000000	-5.47327800000000	93.62369200000001	-15.39817900000000	0.27762100000000	0.00000000000000	0.07263200000000	-70.19554900000000	703.96585500000003	-29.69807400000000	0.01682800000000	0.00000000000000	-0.07654300000000	0.00000000000000	-9.42249900000000	0.00000000000000	0.00000000000000	-12.69390000000000	0.00000000000000	
22.41324800000000	-4.57789900000000	100.81379800000001	-15.51862300000000	0.28218000000000	0.00000000000000	0.07313100000000	-71.07414000000000	699.17095700000004	-29.08180500000000	0.01602600000000	0.00000000000000	-0.07634800000000	0.00000000000000	-9.69276900000000	0.00000000000000	0.00000000000000	-12.78978900000000	0.00000000000000	
22.41491700000000	-3.53735500000000	107.96034299999999	-15.50780500000000	0.28640800000000	0.00000000000000	0.07359400000000	-71.94124200000000	694.23181399999999	-28.45279800000000	0.01523300000000	0.00000000000000	-0.07615100000000	0.00000000000000	-9.89345400000000	0.00000000000000	0.00000000000000	-12.88611700000000	0.00000000000000	
22.41658100000000	-2.37301000000000	115.10398600000001	-15.38567300000000	0.29033700000000	0.00000000000000	0.07402700000000	-72.79408599999999	689.14548000000002	-27.81117300000000	0.01444800000000	0.00000000000000	-0.07595300000000	0.00000000000000	-10.03426100000000	0.00000000000000	0.00000000000000	-12.98241400000000	0.00000000000000	
22.41825500000000	-1.10575700000000	122.28997900000000	-15.17244300000000	0.29399700000000	0.00000000000000	0.07443300000000	-73.62985300000000	683.90914899999996	-27.15708700000000	0.01367200000000	0.00000000000000	-0.07575200000000	0.00000000000000	-10.12550900000000	0.00000000000000	0.00000000000000	-13.07820200000000	0.00000000000000	
22.41992400000000	0.24517100000000	129.56389400000000	-14.88717400000000	0.29741100000000	0.00000000000000	0.07481400000000	-74.44568500000000	678.52017000000001	-26.49074000000000	0.01290500000000	0.00000000000000	-0.07554900000000	0.00000000000000	-10.17726600000000	0.00000000000000	0.00000000000000	-13.17298800000000	0.00000000000000	
22.42158900000000	1.66304900000000	136.96802800000000	-14.54668100000000	0.30060100000000	0.00000000000000	0.07517500000000	-75.23869500000001	672.97607800000003	-25.81237400000000	0.01214800000000	0.00000000000000	-0.07534500000000	0.00000000000000	-10.19865400000000	0.00000000000000	0.00000000000000	-13.26627400000000	0.00000000000000	
22.42324700000000	3.13417700000000	144.53866500000001	-14.16480300000000	0.30358500000000	0.00000000000000	0.07551600000000	-76.00597000000000	667.27460699999995	-25.12227400000000	0.01140100000000	0.00000000000000	-0.07513900000000	0.00000000000000	-10.19735100000000	0.00000000000000	0.00000000000000	-13.35755200000000	0.00000000000000	
22.42491400000000	4.64808000000000	152.30422400000000	-13.75202400000000	0.30637900000000	0.00000000000000	0.07583900000000	-76.74458500000000	661.41371400000003	-24.42077100000000	0.01066500000000	0.00000000000000	-0.07493100000000	0.00000000000000	-10.17928300000000	0.00000000000000	0.00000000000000	-13.44630800000000	0.00000000000000	
22.42658800000000	6.19743000000000	160.28430399999999	-13.31540600000000	0.30899600000000	0.00000000000000	0.07614700000000	-77.45161000000000	655.39160200000003	-23.70824100000000	0.00994000000000	0.00000000000000	-0.07472100000000	0.00000000000000	-10.14852300000000	0.00000000000000	0.00000000000000	-13.53202200000000	0.00000000000000	
22.42825300000000	7.77774700000000	168.48951000000000	-12.85879500000000	0.31144900000000	0.00000000000000	0.07644100000000	-78.12412000000000	649.20673299999999	-22.98510700000000	0.00922600000000	0.00000000000000	-0.07451000000000	0.00000000000000	-10.10733500000000	0.00000000000000	0.00000000000000	-13.61417400000000	0.00000000000000	
22.42992500000000	9.38694500000000	176.92194900000001	-12.38322400000000	0.31374800000000	0.00000000000000	0.07672200000000	-78.75920499999999	642.85784999999998	-22.25183700000000	0.00852500000000	0.00000000000000	-0.07429700000000	0.00000000000000	-10.05635900000000	0.00000000000000	0.00000000000000	-13.69224000000000	0.00000000000000	
22.43158100000000	11.02478100000000	185.57621900000001	-11.88744900000000	0.31590200000000	0.00000000000000	0.07699000000000	-79.35398100000000	636.34398999999996	-21.50894900000000	0.00783500000000	0.00000000000000	-0.07408200000000	0.00000000000000	-9.99488200000000	0.00000000000000	0.00000000000000	-13.76569700000000	0.00000000000000	
